<svg xmlns="http://www.w3.org/2000/svg" width="62" height="15">
    <path fill-rule="evenodd" fill="#FFF" d="M61.939 8.157h-4.972c.019.759.259 1.339.721 1.74.419.358.961.537 1.627.537.736 0 1.408-.121 2.012-.364l.259 1.185c-.706.317-1.539.475-2.501.475-1.157 0-2.065-.351-2.726-1.051-.659-.701-.989-1.641-.989-2.821 0-1.159.307-2.124.922-2.893.643-.821 1.513-1.232 2.608-1.232 1.075 0 1.889.411 2.442 1.232.438.653.658 1.46.658 2.418 0 .306-.02.564-.061.774zm-3.162-3.241c-.542 0-.983.232-1.32.696-.276.369-.44.812-.49 1.327h3.452c.011-.505-.097-.942-.322-1.311-.286-.475-.727-.712-1.32-.712zm-6.064 1.123c-.276.401-.414.907-.414 1.518v4.031h-1.657l.015-5.264c0-.885-.021-1.691-.062-2.418h1.444l.061 1.47h.046a2.62 2.62 0 0 1 .828-1.217c.37-.275.768-.412 1.198-.412.154 0 .292.012.415.032v1.627a2.818 2.818 0 0 0-.523-.047c-.583 0-1.034.227-1.351.68zm-7.23 5.722c-1.095 0-1.967-.374-2.617-1.121-.65-.748-.975-1.692-.975-2.83 0-1.19.335-2.165 1.006-2.923.669-.759 1.573-1.139 2.708-1.139 1.095 0 1.976.374 2.641 1.123.636.726.953 1.663.953 2.812 0 1.181-.328 2.15-.983 2.909-.686.78-1.598 1.169-2.733 1.169zm1.551-5.846c-.347-.613-.844-.919-1.488-.919-.666 0-1.172.307-1.52.919-.297.508-.444 1.125-.444 1.855 0 .709.147 1.317.444 1.822.359.614.859.92 1.506.92.632 0 1.129-.313 1.488-.936.305-.516.459-1.13.459-1.838 0-.708-.147-1.316-.445-1.823zm-7.906 3.001c0 .949.322 1.423.968 1.423.296 0 .541-.027.736-.08l.046 1.296c-.327.126-.757.189-1.289.189-.655 0-1.167-.205-1.536-.616-.368-.412-.553-1.102-.553-2.071V5.184h-1.088v-1.28H37.5V2.497l1.628-.506v1.913h1.827v1.282h-1.827v3.73zm-6.246-3.459c.89.37 1.544.801 1.965 1.296.419.493.628 1.11.628 1.847 0 .906-.306 1.643-.919 2.213-.674.622-1.612.932-2.818.932-1.114 0-2.006-.221-2.682-.663l.384-1.423c.728.453 1.526.68 2.396.68.625 0 1.111-.145 1.46-.435.347-.29.521-.679.521-1.164 0-.432-.143-.797-.43-1.092-.286-.296-.762-.57-1.428-.824-1.811-.696-2.716-1.715-2.716-3.055 0-.876.317-1.594.952-2.153.633-.559 1.477-.839 2.533-.839.942 0 1.724.169 2.348.506l-.414 1.392c-.583-.327-1.243-.49-1.98-.49-.584 0-1.039.148-1.366.442a1.284 1.284 0 0 0-.414.965c0 .421.158.77.475 1.043.276.253.777.527 1.505.822zm-10.317 6.304c-.983 0-1.689-.363-2.118-1.09h-.031v4.047h-1.657V6.434c0-.821-.021-1.664-.062-2.529h1.458l.093 1.218h.031c.552-.918 1.391-1.376 2.517-1.376.879 0 1.614.358 2.203 1.075.587.717.882 1.66.882 2.83 0 1.306-.343 2.339-1.029 3.097-.614.675-1.376 1.012-2.287 1.012zM23.7 5.865c-.358-.506-.838-.759-1.442-.759-.41 0-.781.141-1.113.419a1.95 1.95 0 0 0-.652 1.099 2.37 2.37 0 0 0-.077.52v1.281c0 .559.167 1.031.498 1.416.333.384.765.577 1.298.577.624 0 1.11-.248 1.458-.743.348-.496.522-1.149.522-1.961 0-.747-.164-1.364-.492-1.849zm-9.716 5.896c-.982 0-1.688-.363-2.118-1.09h-.031v4.047h-1.658V6.434c0-.821-.021-1.664-.061-2.529h1.457l.093 1.218h.031c.553-.918 1.392-1.376 2.517-1.376.88 0 1.615.358 2.203 1.075.589.717.883 1.66.883 2.83 0 1.306-.343 2.339-1.028 3.097-.615.675-1.377 1.012-2.288 1.012zm1.136-5.896c-.358-.506-.84-.759-1.443-.759-.409 0-.78.141-1.112.419-.333.28-.551.646-.653 1.099a2.31 2.31 0 0 0-.077.52v1.281c0 .559.167 1.031.499 1.416.333.385.765.577 1.297.577.625 0 1.11-.248 1.458-.743.348-.496.522-1.149.522-1.961 0-.747-.163-1.364-.491-1.849zM6.002 8.458H2.64l-.921 3.13H0L3.331.933h2.057l3.347 10.655H6.969l-.967-3.13zM4.836 4.363c-.093-.284-.266-.953-.522-2.007h-.031a82.372 82.372 0 0 1-.491 2.007l-.859 2.782H5.71l-.874-2.782z"/>
</svg>
