<svg xmlns="http://www.w3.org/2000/svg" xmlns:xlink="http://www.w3.org/1999/xlink" viewBox="0 0 11 90">
    <g fill="#fff">
        <path d="M.2 90v-6.9H8v2.1H1.8V88H8v2H.2zM.2 80.9V79h1.1c-.4-.3-.7-.6-1-1S0 77 0 76.5c0-.9.4-1.7 1.1-2.3.7-.6 1.7-.9 3-.9s2.3.3 3 1 1.1 1.4 1.1 2.3c0 .4-.1.8-.3 1.2-.2.2-.5.6-.9 1h4v2.1H.2zM4 78.8c.9 0 1.5-.2 1.9-.5.4-.3.6-.8.6-1.3s-.2-.9-.6-1.2c-.4-.3-1-.5-1.9-.5-.8 0-1.4.2-1.8.5-.4.3-.6.7-.6 1.2s.2.9.6 1.3 1 .5 1.8.5zM.2 71.7v-2h4.9L.2 66.5v-2H8v2H3l5 3.2v2H.2zM.2 61.8v-6.9H8V57H1.9v2.8h3.5c.9 0 1.5.1 1.9.3.4.2.6.4.7.7s.2.7.2 1.2c0 .3 0 .8-.1 1.3H6.5V63v-.5c0-.3-.1-.5-.3-.5-.2-.1-.7-.1-1.5-.1H.2zM4 53.4c-.7 0-1.4-.2-2-.5S.9 52.1.5 51.5 0 50.2 0 49.4c0-1.2.4-2.2 1.2-2.9.8-.8 1.7-1.1 2.9-1.1s2.2.4 2.9 1.1 1.2 1.7 1.2 2.9c0 .7-.2 1.4-.5 2.1-.3.7-.8 1.1-1.4 1.5s-1.4.4-2.3.4zm.1-2.1c.8 0 1.4-.2 1.8-.6s.6-.8.6-1.4c0-.5-.2-1-.6-1.4-.4-.4-1-.5-1.8-.5s-1.4.2-1.8.5c-.4.4-.6.8-.6 1.4 0 .5.2 1 .6 1.4s1 .6 1.8.6zM8 40.7H4.7c0 .3.1.5.2.6.1.1.4.3.9.6l2.3 1V45l-2.2-1.1c-1.1-.6-1.7-1.1-1.9-1.7-.2.5-.6.8-1.3 1-.5.2-.9.3-1 .5s-.2.5-.2 1H.2v-.9c0-.5.1-.8.3-1.2.2-.3.7-.6 1.5-.9.6-.2 1-.4 1.2-.5.2-.1.3-.3.3-.6H.2v-2.1h3.2c0-.3-.1-.5-.3-.6-.2-.1-.6-.3-1.2-.5-.8-.3-1.3-.6-1.5-.9-.2-.3-.3-.7-.3-1.2v-.8h1.4c0 .5.1.9.2 1s.4.3 1 .5c.7.2 1.2.6 1.3 1 .2-.6.8-1.2 1.9-1.7l2.1-1v2.2l-2.3 1c-.4.2-.7.3-.8.5l-.3.6H8v2.1zM5.5 28.9l.3-2.1c.8.3 1.3.7 1.7 1.3.4.6.6 1.3.6 2.1 0 1.4-.4 2.4-1.3 3-.7.5-1.6.8-2.7.8-1.3 0-2.3-.3-3-1-.7-.6-1.1-1.5-1.1-2.5 0-1.2.4-2.1 1.2-2.8.8-.7 1.9-1 3.5-1v5.2c.6 0 1.1-.2 1.4-.5s.5-.7.5-1.2c0-.3-.1-.6-.3-.8-.1-.2-.4-.4-.8-.5zm-2.1-.1c-.6 0-1.1.2-1.4.5s-.5.7-.5 1.1c0 .5.2.8.5 1.1s.8.4 1.3.4v-3.1zM.2 25.2v-2.1H3v-3H.2V18H8v2.1H4.7v3H8v2.1H.2zM.2 16v-2h4.9L.2 10.8v-2H8v2H3L8 14v2H.2zM.2 0H8v2.1H4.7v.2c0 .4.1.8.2 1 .1.1.4.4.8.6l.1.1L8 5.4v2.4L5.7 6.3c-.6-.4-1-.8-1.1-1.1 0 .6-.3 1-.7 1.4s-.9.5-1.5.5c-.5 0-.9-.1-1.3-.3-.4-.3-.6-.6-.7-1S.2 4.8.2 4V0zm1.3 2.1v1.5c0 .5.1.9.2 1.1s.5.3.8.3.6-.1.8-.4c.1-.2.2-.6.2-1.2V2.1h-2z"/>
    </g>
</svg>
