<svg xmlns="http://www.w3.org/2000/svg" width="63" height="14">
    <path fill-rule="evenodd" fill="#fff" d="M20.131 4.33c-1.747 0-3.172 1.358-3.172 3.231 0 1.861 1.425 3.232 3.172 3.232 1.748 0 3.172-1.371 3.172-3.232 0-1.873-1.424-3.231-3.172-3.231zm0 5.19c-.957 0-1.783-.808-1.783-1.959 0-1.163.826-1.958 1.783-1.958.958 0 1.784.795 1.784 1.958 0 1.151-.826 1.959-1.784 1.959zm-6.919-5.19c-1.748 0-3.172 1.358-3.172 3.231 0 1.861 1.424 3.232 3.172 3.232 1.747 0 3.172-1.371 3.172-3.232 0-1.873-1.425-3.231-3.172-3.231zm0 5.19c-.958 0-1.784-.808-1.784-1.959 0-1.163.826-1.958 1.784-1.958.957 0 1.783.795 1.783 1.958 0 1.151-.826 1.959-1.783 1.959zM4.981 5.321v1.371h3.208c-.096.771-.348 1.334-.731 1.726-.466.477-1.197 1.004-2.477 1.004-1.975 0-3.519-1.628-3.519-3.648 0-2.02 1.544-3.648 3.519-3.648 1.065 0 1.843.429 2.418.979l.945-.967C7.542 1.355 6.477.755 4.981.755 2.276.755.002 3.008.002 5.774c0 2.767 2.274 5.019 4.979 5.019 1.46 0 2.561-.49 3.423-1.408.886-.906 1.161-2.179 1.161-3.207 0-.318-.024-.612-.072-.857H4.981zm33.662 1.065c-.264-.722-1.066-2.056-2.706-2.056-1.627 0-2.98 1.309-2.98 3.231 0 1.812 1.341 3.232 3.136 3.232 1.448 0 2.286-.906 2.633-1.432l-1.077-.735c-.359.539-.85.894-1.556.894-.706 0-1.209-.331-1.532-.979l4.225-1.788-.143-.367zm-4.309 1.077c-.036-1.248.945-1.885 1.651-1.885.551 0 1.018.282 1.173.686l-2.824 1.199zm-3.436 3.134h1.389V1.098h-1.389v9.499zm-2.274-5.545h-.048c-.311-.38-.909-.722-1.663-.722-1.58 0-3.029 1.42-3.029 3.243 0 1.812 1.449 3.22 3.029 3.22.754 0 1.352-.343 1.663-.735h.048v.466c0 1.236-.646 1.897-1.687 1.897-.85 0-1.377-.624-1.592-1.151l-1.209.514c.347.857 1.268 1.91 2.801 1.91 1.627 0 3.004-.979 3.004-3.366V4.525h-1.317v.527zM27.032 9.52c-.957 0-1.759-.82-1.759-1.947 0-1.138.802-1.97 1.759-1.97.946 0 1.688.832 1.688 1.97 0 1.127-.742 1.947-1.688 1.947zm18.114-8.422h-3.322v9.499h1.386V6.998h1.936c1.537 0 3.047-1.138 3.047-2.95 0-1.812-1.51-2.95-3.047-2.95zm.036 4.578H43.21V2.42h1.972c1.037 0 1.625.878 1.625 1.628 0 .736-.588 1.628-1.625 1.628zm8.567-1.364c-1.003 0-2.043.452-2.473 1.454l1.231.526c.263-.526.753-.697 1.266-.697.717 0 1.446.44 1.458 1.222v.098a3.01 3.01 0 0 0-1.446-.367c-1.326 0-2.676.746-2.676 2.139 0 1.271 1.087 2.09 2.306 2.09.932 0 1.446-.428 1.768-.929h.048v.733h1.338V6.94c0-1.687-1.23-2.628-2.82-2.628zm-.167 5.206c-.454 0-1.087-.232-1.087-.807 0-.733.788-1.014 1.47-1.014.609 0 .896.135 1.266.318-.107.88-.848 1.503-1.649 1.503zm7.863-4.998l-1.59 4.118h-.047L58.159 4.52h-1.494l2.474 5.756-1.411 3.201h1.446l3.812-8.957h-1.541zm-12.487 6.077h1.386V1.098h-1.386v9.499z"/>
</svg>
